<?xml version="1.0" encoding="iso-8859-1"?>
<!-- Uploaded to: SVG Repo, www.svgrepo.com, Generator: SVG Repo Mixer Tools -->
<svg fill="#000000" version="1.1" id="Layer_1" xmlns="http://www.w3.org/2000/svg" xmlns:xlink="http://www.w3.org/1999/xlink" 
	 viewBox="0 0 511.998 511.998" xml:space="preserve">
<g>
	<g>
		<path d="M431.696,394.296l-21.531,21.531l22.096,22.096H271.224v-59.341h132.503V82.551L321.175,0H108.271v378.582h132.503v59.341
			H79.737l22.096-22.096l-21.531-21.531L21.45,453.147l58.851,58.851l21.531-21.531l-22.096-22.096h352.524l-22.096,22.096
			l21.531,21.531l58.851-58.851L431.696,394.296z M330.094,51.982l21.65,21.65h-21.65V51.982z M138.721,348.132V30.45h160.923
			v73.632h73.632v244.049H138.721z"/>
	</g>
</g>
<g>
	<g>
		<rect x="171.88" y="148.689" width="168.248" height="30.45"/>
	</g>
</g>
<g>
	<g>
		<rect x="171.88" y="97.938" width="84.124" height="30.45"/>
	</g>
</g>
<g>
	<g>
		<rect x="171.88" y="199.44" width="168.248" height="30.45"/>
	</g>
</g>
<g>
	<g>
		<rect x="171.88" y="250.19" width="168.248" height="30.45"/>
	</g>
</g>
</svg>